<?xml version="1.0" encoding="iso-8859-1"?>
<!-- Uploaded to: SVG Repo, www.svgrepo.com, Generator: SVG Repo Mixer Tools -->
<svg height="800px" width="800px" version="1.1" id="Layer_1" xmlns="http://www.w3.org/2000/svg" xmlns:xlink="http://www.w3.org/1999/xlink" 
	 viewBox="0 0 512 512" xml:space="preserve">
<path style="fill:#C7E9F4;" d="M492.588,317.636H19.412C8.691,317.636,0,308.945,0,298.224V52.987
	C0,24.443,23.222,1.222,51.765,1.222h408.47C488.778,1.222,512,24.443,512,52.987v245.237
	C512,308.946,503.309,317.636,492.588,317.636z"/>
<g>
	<path style="fill:#80D0E1;" d="M460.235,1.222H255.999v316.414h236.587c10.721,0,19.412-8.691,19.412-19.412V52.987
		C512,24.443,488.778,1.222,460.235,1.222z"/>
	<path style="fill:#80D0E1;" d="M347.883,471.954h-20.625l-10.875-89.84c-1.18-9.747-9.454-17.08-19.272-17.08h-82.225
		c-9.819,0-18.091,7.333-19.272,17.08l-10.875,89.84h-20.625c-25.651,0-25.678,38.824,0,38.824c41.318,0,142.622,0,183.766,0
		C373.535,510.778,373.561,471.954,347.883,471.954z"/>
</g>
<path style="fill:#51B3DA;" d="M347.883,471.954h-20.625l-10.875-89.84c-1.18-9.747-9.454-17.08-19.272-17.08h-41.113v145.743
	c19.429,0,72.471,0,91.883,0C373.535,510.778,373.561,471.954,347.883,471.954z"/>
<path style="fill:#FF5E5B;" d="M304.497,140.017h-29.086v-29.084c0-10.721-8.691-19.412-19.412-19.412
	c-10.721,0-19.412,8.691-19.412,19.412v29.084h-29.086c-25.651,0-25.678,38.824,0,38.824h29.086v29.086
	c0,10.721,8.691,19.412,19.412,19.412c10.721,0,19.412-8.691,19.412-19.412v-29.086h29.086
	C330.148,178.841,330.175,140.017,304.497,140.017z"/>
<path style="fill:#39A3DB;" d="M460.235,403.857H51.765C23.177,403.857,0,380.681,0,352.092v-73.28h512v73.28
	C512,380.682,488.823,403.857,460.235,403.857z"/>
<path style="fill:#3797D3;" d="M255.999,278.812v125.045h204.234c28.589,0,51.765-23.177,51.765-51.765v-73.28H255.999z"/>
<path style="fill:#FF423D;" d="M304.497,140.017h-29.086v-29.084c0-10.721-8.691-19.412-19.412-19.412v135.818
	c10.721,0,19.412-8.691,19.412-19.412v-29.086h29.086C330.148,178.841,330.175,140.017,304.497,140.017z"/>
</svg>